<svg width="555" height="143" viewBox="0 0 555 143" fill="none" xmlns="http://www.w3.org/2000/svg">
    <path d="M77.4377 17.3192C77.4377 23.917 74.5531 28.9288 68.7838 32.3546C71.9248 33.4965 74.5531 35.4632 76.6685 38.2545C78.7839 41.0459 79.8416 45.0109 79.8416 50.1496C79.8416 55.2248 77.9185 59.2533 74.0723 62.235C70.2902 65.2167 64.8414 66.7075 57.726 66.7075H35.0335C33.9437 66.7075 33.0463 66.3586 32.3411 65.6608C31.636 64.8995 31.2834 63.9161 31.2834 62.7108V1.80805C31.2834 1.11021 31.3796 0.666124 31.5719 0.475802C31.8283 0.22204 32.3091 0.0951593 33.0142 0.0951593H54.9375C69.9376 0.0951593 77.4377 5.83651 77.4377 17.3192ZM49.7451 15.5112V27.9772H50.2259C56.3798 27.9772 59.4568 25.9471 59.4568 21.8869C59.4568 19.6665 58.8478 18.0488 57.6298 17.0337C56.476 16.0187 54.5208 15.5112 51.7644 15.5112H49.7451ZM49.7451 39.2061V51.577H51.4759C54.2324 51.577 56.2516 51.0695 57.5337 50.0544C58.8157 49.0394 59.4568 47.4217 59.4568 45.2012C59.4568 42.9808 58.8478 41.4265 57.6298 40.5384C56.476 39.6502 54.5208 39.2061 51.7644 39.2061H49.7451Z" fill="white"/>
    <path d="M92.1253 52.5975V23.3931H86.24C85.3006 23.3931 84.6374 22.2172 84.2506 19.8656C84.0848 18.7171 84.0019 17.5413 84.0019 16.3381C84.0019 15.1349 84.0848 13.9591 84.2506 12.8106C84.6374 10.4589 85.3006 9.28307 86.24 9.28307H114.092C115.031 9.28307 115.667 10.4589 115.998 12.8106C116.219 13.9591 116.33 15.1349 116.33 16.3381C116.33 17.5413 116.219 18.7171 115.998 19.8656C115.667 22.2172 115.031 23.3931 114.092 23.3931H108.538V52.5975H114.34C115.28 52.5975 115.943 53.7733 116.33 56.125C116.551 57.2735 116.661 58.4493 116.661 59.6525C116.661 60.8557 116.551 62.0315 116.33 63.18C115.943 65.5317 115.28 66.7075 114.34 66.7075H86.4058C85.4663 66.7075 84.8308 65.5317 84.4993 63.18C84.2782 62.0315 84.1677 60.8557 84.1677 59.6525C84.1677 58.4493 84.2782 57.2735 84.4993 56.125C84.8308 53.7733 85.4663 52.5975 86.4058 52.5975H92.1253Z" fill="white"/>
    <path d="M162.891 24.1314C162.891 29.8191 160.404 34.1397 155.431 37.0929C158.139 38.0773 160.404 39.7727 162.228 42.1791C164.052 44.5854 164.963 48.0036 164.963 52.4334C164.963 56.8086 163.306 60.2815 159.99 62.8519C156.729 65.4223 152.032 66.7075 145.898 66.7075H126.336C125.396 66.7075 124.623 66.4067 124.015 65.8051C123.407 65.1489 123.103 64.3012 123.103 63.2621V10.7597C123.103 10.1581 123.186 9.77528 123.352 9.61121C123.573 9.39245 123.987 9.28307 124.595 9.28307H143.494C156.426 9.28307 162.891 14.2325 162.891 24.1314ZM139.018 22.5727V33.3193H139.433C144.738 33.3193 147.39 31.5692 147.39 28.0691C147.39 26.1549 146.865 24.7603 145.815 23.8853C144.821 23.0103 143.135 22.5727 140.759 22.5727H139.018ZM139.018 42.9994V53.664H140.51C142.887 53.664 144.627 53.2264 145.732 52.3514C146.838 51.4764 147.39 50.0818 147.39 48.1676C147.39 46.2535 146.865 44.9136 145.815 44.1479C144.821 43.3823 143.135 42.9994 140.759 42.9994H139.018Z" fill="white"/>
    <path d="M170.579 61.8675V10.8417C170.579 9.69325 173.37 9.119 178.951 9.119C184.588 9.119 187.406 9.69325 187.406 10.8417V51.0388H200.172C201.167 51.0388 201.857 52.3241 202.244 54.8945C202.41 56.1524 202.493 57.4376 202.493 58.7501C202.493 60.0627 202.41 61.4026 202.244 62.7698C201.802 65.395 201.084 66.7075 200.089 66.7075H174.558C173.342 66.7075 172.375 66.2153 171.657 65.2309C170.939 64.2465 170.579 63.1253 170.579 61.8675Z" fill="white"/>
    <path d="M234.371 32.0888C235.421 32.0888 235.946 34.0029 235.946 37.8312C235.946 38.9797 235.807 40.347 235.531 41.933C235.31 43.4643 234.868 44.2299 234.205 44.2299H223.678V52.4334H238.93C239.869 52.4334 240.505 53.6366 240.836 56.043C241.002 57.0821 241.085 58.2032 241.085 59.4064C241.085 60.5549 240.919 62.0589 240.587 63.9183C240.256 65.7778 239.703 66.7075 238.93 66.7075H210.581C208.481 66.7075 207.431 65.8598 207.431 64.1644V11.416C207.431 9.99404 208.066 9.28307 209.337 9.28307H239.013C240.173 9.28307 240.753 11.7168 240.753 16.5842C240.753 21.3969 240.173 23.8033 239.013 23.8033H223.678V32.0888H234.371Z" fill="white"/>
    <path d="M316.905 65.0898C316.905 66.1683 313.667 66.7075 307.193 66.7075C300.718 66.7075 297.481 66.1683 297.481 65.0898V43.2029H284.02V65.0898C284.02 66.1683 280.782 66.7075 274.308 66.7075C267.834 66.7075 264.596 66.1683 264.596 65.0898V1.99837C264.596 0.666124 267.834 0 274.308 0C280.782 0 284.02 0.666124 284.02 1.99837V24.3611H297.481V2.18869C297.481 1.30053 299.084 0.666124 302.289 0.285484C303.956 0.158601 305.59 0.0951593 307.193 0.0951593L312.097 0.285484C315.302 0.666124 316.905 1.30053 316.905 2.18869V65.0898Z" fill="white"/>
    <path d="M364.773 66.8716C359.966 66.8716 357.368 66.1059 356.981 64.5746L354.246 53.9921H341.066L338.662 64.1644C338.331 65.8598 335.678 66.7075 330.705 66.7075C328.052 66.7075 326.09 66.5708 324.819 66.2973C323.548 65.9692 322.913 65.7231 322.913 65.559L337.585 10.0214C337.585 9.58387 341.37 9.36511 348.941 9.36511C356.512 9.36511 360.297 9.58387 360.297 10.0214L374.637 65.6411C374.637 66.0239 373.366 66.3247 370.824 66.5434C368.282 66.7622 366.265 66.8716 364.773 66.8716ZM343.138 43.5737H351.842L348.112 26.5924H347.615L343.138 43.5737Z" fill="white"/>
    <path d="M425.556 64.9028C425.556 66.0512 422.958 66.6255 417.764 66.6255C412.569 66.6255 409.751 66.2153 409.309 65.395L395.466 39.8001V65.3129C395.466 66.2973 392.896 66.7896 387.757 66.7896C382.673 66.7896 380.131 66.2973 380.131 65.3129V10.4316C380.131 9.61121 382.314 9.20104 386.679 9.20104C388.393 9.20104 390.382 9.36511 392.648 9.69325C394.969 9.96669 396.378 10.5136 396.875 11.3339L410.138 36.6007V10.8417C410.138 9.80263 412.708 9.28307 417.847 9.28307C422.986 9.28307 425.556 9.80263 425.556 10.8417V64.9028Z" fill="white"/>
    <path d="M433.881 62.9339V13.713C433.881 12.3457 434.213 11.2793 434.876 10.5136C435.594 9.69325 436.506 9.28307 437.611 9.28307H451.454C460.241 9.28307 466.9 11.4707 471.431 15.8459C476.018 20.2211 478.311 27.112 478.311 36.5187C478.311 56.6446 469.635 66.7075 452.283 66.7075H438.109C435.29 66.7075 433.881 65.4497 433.881 62.9339ZM449.797 24.8697V49.3982C449.797 50.5466 449.879 51.285 450.045 51.6131C450.211 51.8865 450.708 52.0233 451.537 52.0233C454.577 52.0233 456.87 50.9021 458.417 48.6598C460.02 46.4175 460.821 42.6986 460.821 37.5031C460.821 32.2529 459.992 28.8347 458.334 27.2487C456.732 25.6627 454.162 24.8697 450.625 24.8697H449.797Z" fill="white"/>
    <path d="M513.807 11.9902C514.525 10.0761 518.062 9.119 524.417 9.119C526.019 9.119 527.898 9.22838 530.053 9.44714C532.264 9.6659 533.286 9.93935 533.12 10.2675L515.879 44.5581V64.5746C515.879 65.5043 514.359 66.1606 511.32 66.5434C509.772 66.7622 508.253 66.8716 506.761 66.8716C505.269 66.8716 503.777 66.7896 502.285 66.6255C499.245 66.2427 497.726 65.559 497.726 64.5746V45.0503L479.904 10.4316C479.683 10.1034 480.816 9.80263 483.302 9.52918C485.789 9.20104 487.889 9.03697 489.602 9.03697C496.399 9.03697 500.129 10.0214 500.793 11.9902L506.844 28.7253L513.807 11.9902Z" fill="white"/>
    <path d="M8.75008 142.37C2.91669 142.37 0 141.736 0 140.467V78.8027C0 76.6458 0.993599 75.5673 2.9808 75.5673H19.904C29.3913 75.5673 36.2183 77.5022 40.385 81.3721C44.6158 85.2419 46.7312 90.8564 46.7312 98.2155C46.7312 104.306 44.744 109.889 40.7696 114.964C38.7824 117.501 35.8657 119.531 32.0195 121.054C28.1733 122.577 23.6861 123.338 18.5579 123.338V140.372C18.5579 141.133 17.3399 141.672 14.904 141.989C12.5322 142.243 10.4809 142.37 8.75008 142.37ZM18.5579 92.1252V107.161H19.8079C22.0515 107.161 23.9425 106.463 25.481 105.067C27.0195 103.671 27.7887 101.705 27.7887 99.1671C27.7887 96.6295 27.2438 94.8214 26.1541 93.743C25.1284 92.6645 23.2694 92.1252 20.5771 92.1252H18.5579Z" fill="white"/>
    <path d="M70.3921 141.031C70.3921 141.906 67.7672 142.344 62.5173 142.344C57.2123 142.344 54.5597 141.934 54.5597 141.113V87.6264C54.5597 85.7123 55.582 84.7552 57.6267 84.7552H73.4591C87.9928 84.7552 95.2597 90.3609 95.2597 101.572C95.2597 104.963 94.5965 108.053 93.2703 110.842C91.944 113.577 90.0651 115.764 87.6336 117.405L98.078 134.632C97.6359 135.945 96.1991 137.449 93.7676 139.144C90.4519 141.496 87.7165 142.672 85.5613 142.672C83.4061 142.672 81.8036 141.906 80.7536 140.375L72.9617 122.409H70.3921V141.031ZM70.3921 99.2754V111.581H70.8065C76.0564 111.581 78.6813 109.42 78.6813 105.1C78.6813 103.131 78.1563 101.682 77.1063 100.752C76.1116 99.7676 74.4538 99.2754 72.1328 99.2754H70.3921Z" fill="white"/>
    <path d="M130.393 107.561C131.443 107.561 131.968 109.475 131.968 113.303C131.968 114.452 131.83 115.819 131.553 117.405C131.332 118.936 130.89 119.702 130.227 119.702H119.7V127.906H134.952C135.891 127.906 136.527 129.109 136.859 131.515C137.024 132.554 137.107 133.675 137.107 134.879C137.107 136.027 136.941 137.531 136.61 139.39C136.278 141.25 135.726 142.18 134.952 142.18H106.603C104.503 142.18 103.453 141.332 103.453 139.637V86.8881C103.453 85.4662 104.089 84.7552 105.36 84.7552H135.035C136.195 84.7552 136.776 87.1889 136.776 92.0563C136.776 96.869 136.195 99.2754 135.035 99.2754H119.7V107.561H130.393Z" fill="white"/>
    <path d="M146.488 122.163C147.538 122.983 149.334 124.105 151.876 125.527C154.473 126.949 156.932 127.659 159.253 127.659C161.629 127.659 162.817 126.757 162.817 124.952C162.817 124.132 162.486 123.421 161.823 122.819C161.159 122.163 159.944 121.425 158.175 120.604C156.407 119.784 155.081 119.155 154.197 118.718C153.312 118.225 152.124 117.46 150.632 116.421C149.195 115.327 148.09 114.206 147.316 113.057C145.106 109.94 144.001 105.975 144.001 101.162C144.001 96.3495 145.797 92.3024 149.389 89.021C153.036 85.6849 157.789 84.0169 163.646 84.0169C167.625 84.0169 171.3 84.4544 174.671 85.3294C178.042 86.1498 179.783 87.2436 179.893 88.6108C179.893 88.7749 179.893 88.939 179.893 89.1031C179.893 91.0172 179.285 93.4509 178.069 96.4042C176.854 99.3027 175.997 100.916 175.5 101.244C171.963 99.4395 168.786 98.5371 165.967 98.5371C163.204 98.5371 161.823 99.5215 161.823 101.49C161.823 102.694 162.845 103.76 164.89 104.69C165.332 104.908 165.967 105.209 166.796 105.592C167.625 105.975 168.564 106.44 169.614 106.987C170.72 107.479 171.88 108.135 173.096 108.955C174.367 109.721 175.721 110.76 177.158 112.073C180.086 114.807 181.551 118.417 181.551 122.901C181.551 128.753 179.921 133.539 176.66 137.258C173.4 140.976 168.371 142.891 161.574 143C158.258 143 155.246 142.727 152.539 142.18C149.886 141.633 147.565 140.566 145.576 138.98C143.586 137.394 142.592 135.48 142.592 133.238C142.592 130.996 143.006 128.781 143.835 126.593C144.664 124.351 145.548 122.874 146.488 122.163Z" fill="white"/>
    <path d="M215.309 107.561C216.359 107.561 216.884 109.475 216.884 113.303C216.884 114.452 216.745 115.819 216.469 117.405C216.248 118.936 215.806 119.702 215.143 119.702H204.616V127.906H219.868C220.807 127.906 221.443 129.109 221.774 131.515C221.94 132.554 222.023 133.675 222.023 134.879C222.023 136.027 221.857 137.531 221.526 139.39C221.194 141.25 220.641 142.18 219.868 142.18H191.519C189.419 142.18 188.369 141.332 188.369 139.637V86.8881C188.369 85.4662 189.004 84.7552 190.275 84.7552H219.951C221.111 84.7552 221.691 87.1889 221.691 92.0563C221.691 96.869 221.111 99.2754 219.951 99.2754H204.616V107.561H215.309Z" fill="white"/>
    <path d="M274.673 140.375C274.673 141.523 272.076 142.098 266.881 142.098C261.686 142.098 258.868 141.687 258.426 140.867L244.583 115.272V140.785C244.583 141.769 242.013 142.262 236.874 142.262C231.79 142.262 229.248 141.769 229.248 140.785V85.9037C229.248 85.0833 231.431 84.6732 235.797 84.6732C237.51 84.6732 239.499 84.8372 241.765 85.1654C244.086 85.4388 245.495 85.9857 245.992 86.8061L259.255 112.073V86.3139C259.255 85.2747 261.825 84.7552 266.964 84.7552C272.103 84.7552 274.673 85.2747 274.673 86.3139V140.375Z" fill="white"/>
    <path d="M307.949 140.867C307.949 141.961 305.213 142.508 299.743 142.508C294.272 142.508 291.536 141.961 291.536 140.867V99.6856H281.589C280.65 99.6856 279.987 98.4277 279.6 95.9119C279.434 94.7088 279.351 93.4782 279.351 92.2204C279.351 90.9625 279.434 89.732 279.6 88.5288C279.987 86.0131 280.65 84.7552 281.589 84.7552H317.647C318.587 84.7552 319.25 86.0131 319.637 88.5288C319.802 89.732 319.885 90.9625 319.885 92.2204C319.885 93.4782 319.802 94.7088 319.637 95.9119C319.25 98.4277 318.587 99.6856 317.647 99.6856H307.949V140.867Z" fill="white"/>
    <path d="M361.461 142.344C356.653 142.344 354.056 141.578 353.669 140.047L350.934 129.464H337.754L335.35 139.637C335.018 141.332 332.366 142.18 327.392 142.18C324.74 142.18 322.778 142.043 321.507 141.769C320.236 141.441 319.6 141.195 319.6 141.031L334.272 85.4935C334.272 85.056 338.058 84.8372 345.628 84.8372C353.199 84.8372 356.985 85.056 356.985 85.4935L371.325 141.113C371.325 141.496 370.054 141.797 367.512 142.016C364.97 142.234 362.953 142.344 361.461 142.344ZM339.826 119.046H348.53L344.8 102.065H344.302L339.826 119.046Z" fill="white"/>
    <path d="M399.664 140.867C399.664 141.961 396.929 142.508 391.458 142.508C385.987 142.508 383.252 141.961 383.252 140.867V99.6856H373.305C372.365 99.6856 371.702 98.4277 371.315 95.9119C371.149 94.7088 371.067 93.4782 371.067 92.2204C371.067 90.9625 371.149 89.732 371.315 88.5288C371.702 86.0131 372.365 84.7552 373.305 84.7552H409.363C410.302 84.7552 410.965 86.0131 411.352 88.5288C411.518 89.732 411.601 90.9625 411.601 92.2204C411.601 93.4782 411.518 94.7088 411.352 95.9119C410.965 98.4277 410.302 99.6856 409.363 99.6856H399.664V140.867Z" fill="white"/>
    <path d="M421.793 128.07V98.8652H415.907C414.968 98.8652 414.305 97.6894 413.918 95.3377C413.752 94.1892 413.669 93.0134 413.669 91.8102C413.669 90.607 413.752 89.4312 413.918 88.2827C414.305 85.931 414.968 84.7552 415.907 84.7552H443.759C444.698 84.7552 445.334 85.931 445.665 88.2827C445.887 89.4312 445.997 90.607 445.997 91.8102C445.997 93.0134 445.887 94.1892 445.665 95.3377C445.334 97.6894 444.698 98.8652 443.759 98.8652H438.205V128.07H444.008C444.947 128.07 445.61 129.245 445.997 131.597C446.218 132.746 446.329 133.921 446.329 135.125C446.329 136.328 446.218 137.504 445.997 138.652C445.61 141.004 444.947 142.18 444.008 142.18H416.073C415.134 142.18 414.498 141.004 414.167 138.652C413.945 137.504 413.835 136.328 413.835 135.125C413.835 133.921 413.945 132.746 414.167 131.597C414.498 129.245 415.134 128.07 416.073 128.07H421.793Z" fill="white"/>
    <path d="M476.477 143C468.741 143 462.413 140.484 457.495 135.453C452.632 130.421 450.201 123.093 450.201 113.467C450.201 103.787 452.66 96.4588 457.578 91.4821C462.552 86.5053 468.934 84.0169 476.726 84.0169C484.573 84.0169 490.901 86.4779 495.708 91.4C500.516 96.2674 502.92 103.678 502.92 113.632C502.92 123.53 500.461 130.914 495.543 135.781C490.624 140.594 484.269 143 476.477 143ZM476.56 99.7676C473.908 99.7676 471.67 100.971 469.846 103.377C468.078 105.783 467.193 109.174 467.193 113.549C467.193 117.87 468.05 121.206 469.763 123.558C471.476 125.855 473.714 127.003 476.477 127.003C479.296 127.003 481.561 125.827 483.275 123.476C485.043 121.124 485.927 117.761 485.927 113.385C485.927 109.01 485.015 105.647 483.192 103.295C481.423 100.943 479.213 99.7676 476.56 99.7676Z" fill="white"/>
    <path d="M555 140.375C555 141.523 552.403 142.098 547.208 142.098C542.014 142.098 539.195 141.687 538.753 140.867L524.91 115.272V140.785C524.91 141.769 522.341 142.262 517.201 142.262C512.117 142.262 509.575 141.769 509.575 140.785V85.9037C509.575 85.0833 511.758 84.6732 516.124 84.6732C517.837 84.6732 519.826 84.8372 522.092 85.1654C524.413 85.4388 525.822 85.9857 526.319 86.8061L539.582 112.073V86.3139C539.582 85.2747 542.152 84.7552 547.291 84.7552C552.43 84.7552 555 85.2747 555 86.3139V140.375Z" fill="white"/>
</svg>